<svg id="Layer_1" data-name="Layer 1" xmlns="http://www.w3.org/2000/svg" viewBox="0 0 195.7 190.43"><defs><style>.cls-1,.cls-3{fill:none;}.cls-1{stroke:#231f20;stroke-width:2.05px;}.cls-2{fill:#231f20;}.cls-3{stroke:#bb0054;stroke-width:1.92px;}.cls-4{fill:#bb0054;}.cls-5{fill:#fff;}</style></defs><title>herok9</title><line class="cls-1" x1="0.03" y1="145.68" x2="195.67" y2="145.68"/><path class="cls-2" d="M23.42,155.55v14.09H6.75V155.55H0v34.53H6.75V175.15H23.42v14.93h6.75V155.55H23.42ZM59,161.06v-5.52H34.65v34.53H59.15v-5.52H41.4V174.8H58.08V170H41.4v-8.9H59Zm10.87,29V178.44h9.72q5.42,0,5.42,5.34v6.3h6.75v-7.61q0-6.35-5.91-6.7v-0.23q3.83-.73,5.07-2.66t1.24-7.16q0-5.77-2.48-8t-9-2.2H63.11v34.53h6.75Zm0-29H80q3.31,0,4.29,1.07t1,4.77q0,3.62-1.13,4.82t-4.6,1.2H69.86V161.06h0Zm27.67-2.66q-2.79,3.16-2.79,15.51,0,10.37,2.84,13.42t12.53,3q10.76,0,13.56-3.09t2.8-14.95q0-10.85-2.79-14t-12.48-3.12q-10.89,0-13.68,3.16h0Zm20.91,4q1.19,1.58,1.18,10.26t-1.25,10.36q-1.25,1.71-7.53,1.71-6.57,0-7.91-1.52t-1.34-9q0-10,1.15-11.74t7.95-1.7q6.57,0,7.75,1.58h0Zm20.22-6.89v34.53h4V173.91h3.52l16.26,16.17h5.5l-18.24-17.88L166,155.55h-5.18l-14.59,15.08h-3.52V155.55h-4ZM169,182.72q0,4.55,2.76,6.13t10.66,1.58q8,0,10.6-2.14t2.58-8.77L195.7,176l-0.1-9.28q0-7-2.63-9.23T182.2,155.2q-7.92,0-10.4,2.16t-2.47,9.09q0,6,2.35,8.15t9.12,2.1q8.6,0,10.68-3.09h0.08v5.19q0,5.79-1.49,7.07t-8.21,1.28q-5.89,0-7.45-.83t-1.56-4l0-1H169.1q-0.08,1-.08,1.44h0Zm21-22.88q1.54,1.35,1.54,7.15,0,4.33-1.67,5.38t-8.57,1q-5.32,0-6.72-1.3t-1.41-6.19q0-5,1.43-6.21t7.24-1.23q6.62,0,8.16,1.35h0Z"/><path class="cls-2" d="M166.34,93l-4.42-.18,0.13-3.39s9.19-3.53,12.37-9.54,6.36-11,.35-13.43-28.63-5.65-28.63-5.65-9.85-3.18-13.23-6.72-8.68-9.19-16.1-11.31-14.78-7.07-15.9-11S100.2,8.48,98.79,4.59,95.25,0,95.25,0s1.06,3.18-.71,8.84A114.69,114.69,0,0,1,89.6,21.21L79.29,6.31s0.77,19.34-2.77,27.62S69.45,56.19,62,67.5,22.2,129,17.53,136.58H118.11s-1.65-27.38,2.59-30.56,29.69-2.83,29.69-2.83,6.66,0.8,11.24-2.81c5.79-4.56,5.54-6.44,5.54-6.44a0.83,0.83,0,0,0-.83-1h0Z"/><path class="cls-3" d="M97.85,161.67"/><path class="cls-4" d="M97.85,139.87"/><polyline class="cls-5" points="48.87 87.67 50.18 91.67 79.22 91.67 55.72 108.79 64.77 136.59 41.13 119.42 17.53 136.59"/><polyline class="cls-2" points="17.53 136.59 26.59 108.79 3.04 91.67 32.12 91.67 41.13 64.02 48.87 87.67"/></svg>