<?xml version="1.0" encoding="utf-8"?>
<!-- Generator: Adobe Illustrator 19.2.1, SVG Export Plug-In . SVG Version: 6.00 Build 0)  -->
<svg version="1.1" id="Layer_1" xmlns="http://www.w3.org/2000/svg" xmlns:xlink="http://www.w3.org/1999/xlink" x="0px" y="0px"
	 viewBox="0 0 195.7 190.4" style="enable-background:new 0 0 195.7 190.4;" xml:space="preserve">
<style type="text/css">
	.st0{fill:#FFFFFF;stroke:#FFFFFF;stroke-width:2.05;}
	.st1{fill:#FFFFFF;}
	.st2{fill:#FFFFFF;stroke:#BB0054;stroke-width:1.92;}
	.st3{fill:#BB0054;}
</style>
<title>herok9</title>
<line class="st0" x1="0" y1="145.7" x2="195.7" y2="145.7"/>
<path class="st1" d="M23.4,155.6v14.1H6.8v-14.1H0v34.5h6.8v-14.9h16.7v14.9h6.8v-34.5H23.4z M59,161.1v-5.5H34.7v34.5h24.5v-5.5
	H41.4v-9.7h16.7V170H41.4v-8.9L59,161.1L59,161.1z M69.9,190.1v-11.6h9.7c3.6,0,5.4,1.8,5.4,5.3v6.3h6.8v-7.6c0-4.2-2-6.5-5.9-6.7
	v-0.2c2.6-0.5,4.2-1.4,5.1-2.7c0.8-1.3,1.2-3.7,1.2-7.2c0-3.8-0.8-6.5-2.5-8s-4.7-2.2-9-2.2H63.1v34.5L69.9,190.1L69.9,190.1z
	 M69.9,161.1H80c2.2,0,3.6,0.4,4.3,1.1s1,2.3,1,4.8c0,2.4-0.4,4-1.1,4.8c-0.8,0.8-2.3,1.2-4.6,1.2h-9.7L69.9,161.1L69.9,161.1
	L69.9,161.1z M97.5,158.4c-1.9,2.1-2.8,7.3-2.8,15.5c0,6.9,0.9,11.4,2.8,13.4s6.1,3,12.5,3c7.2,0,11.7-1,13.6-3.1s2.8-7,2.8-14.9
	c0-7.2-0.9-11.9-2.8-14c-1.9-2.1-6-3.1-12.5-3.1C103.9,155.2,99.4,156.2,97.5,158.4L97.5,158.4L97.5,158.4z M118.4,162.4
	c0.8,1.1,1.2,4.5,1.2,10.3c0,5.8-0.4,9.2-1.2,10.4c-0.8,1.1-3.3,1.7-7.5,1.7c-4.4,0-7-0.5-7.9-1.5s-1.3-4-1.3-9
	c0-6.7,0.4-10.6,1.2-11.7c0.8-1.2,3.4-1.7,7.9-1.7C115.1,160.8,117.7,161.3,118.4,162.4L118.4,162.4L118.4,162.4z M138.7,155.5V190
	h4v-16.1h3.5l16.3,16.2h5.5l-18.2-17.9l16.3-16.6h-5.2l-14.6,15.1h-3.5v-15.1L138.7,155.5L138.7,155.5z M169,182.7
	c0,3,0.9,5.1,2.8,6.1s5.4,1.6,10.7,1.6c5.3,0,8.9-0.7,10.6-2.1s2.6-4.4,2.6-8.8l0.1-3.5l-0.1-9.3c0-4.7-0.9-7.7-2.6-9.2
	c-1.8-1.5-5.3-2.2-10.8-2.3c-5.3,0-8.7,0.7-10.4,2.2c-1.7,1.4-2.5,4.5-2.5,9.1c0,4,0.8,6.7,2.4,8.1c1.6,1.4,4.6,2.1,9.1,2.1
	c5.7,0,9.3-1,10.7-3.1h0.1v5.2c0,3.9-0.5,6.2-1.5,7.1c-1,0.9-3.7,1.3-8.2,1.3c-3.9,0-6.4-0.3-7.4-0.8c-1-0.6-1.6-1.9-1.6-4v-1h-3.8
	C169,182,169,182.5,169,182.7L169,182.7L169,182.7z M190,159.8c1,0.9,1.5,3.3,1.5,7.1c0,2.9-0.6,4.7-1.7,5.4s-4,1-8.6,1
	c-3.5,0-5.8-0.4-6.7-1.3c-0.9-0.9-1.4-2.9-1.4-6.2c0-3.3,0.5-5.4,1.4-6.2s3.4-1.2,7.2-1.2C186.3,158.4,189,158.9,190,159.8
	L190,159.8L190,159.8z"/>
<path class="st1" d="M166.3,93l-4.4-0.2l0.1-3.4c0,0,9.2-3.5,12.4-9.5s6.4-11,0.4-13.4s-28.6-5.7-28.6-5.7s-9.9-3.2-13.2-6.7
	s-8.7-9.2-16.1-11.3s-14.8-7.1-15.9-11s-0.7-23.3-2.1-27.2S95.2,0,95.2,0s1.1,3.2-0.7,8.8c-1.4,4.2-3.1,8.3-4.9,12.4L79.3,6.3
	c0,0,0.8,19.3-2.8,27.6S69.4,56.2,62,67.5S22.2,129,17.5,136.6h100.6c0,0-1.7-27.4,2.6-30.6s29.7-2.8,29.7-2.8s6.7,0.8,11.2-2.8
	c5.8-4.6,5.5-6.4,5.5-6.4c0.1-0.4-0.2-0.9-0.6-1C166.5,92.9,166.4,92.9,166.3,93L166.3,93L166.3,93z"/>
<path class="st2" d="M97.8,161.7"/>
<path class="st3" d="M97.8,139.9"/>
<polyline points="48.9,87.7 50.2,91.7 79.2,91.7 55.7,108.8 64.8,136.6 41.1,119.4 17.5,136.6 "/>
<polyline class="st1" points="17.5,136.6 26.6,108.8 3,91.7 32.1,91.7 41.1,64 48.9,87.7 "/>
</svg>
